<?xml version="1.0" encoding="UTF-8" standalone="no"?>
<svg width="166px" height="43px" viewBox="0 0 166 43" version="1.1" xmlns="http://www.w3.org/2000/svg" xmlns:xlink="http://www.w3.org/1999/xlink">
    <!-- Generator: sketchtool 50.2 (55047) - http://www.bohemiancoding.com/sketch -->
    <title>3674A1C2-4474-454C-9F75-E853CD9C493E</title>
    <desc>Created with sketchtool.</desc>
    <defs></defs>
    <g id="Symbols" stroke="none" stroke-width="1" fill="none" fill-rule="evenodd">
        <g id="Jolocom_h_white" fill="#FFFFFF">
            <g id="Jolocom_h-Copy">
                <path d="M29.5717143,24.7946897 C29.005146,23.6667729 28.5599804,22.4818222 28.2437143,21.2597931 C29.4214632,21.0206735 30.582059,20.7036557 31.7178571,20.3108276 C32.1406284,21.9658504 32.8564551,23.5316814 33.8313929,24.934069 C33.4460357,24.8806897 33.0577143,24.8362069 32.6664286,24.8035862 C31.6372521,24.7274002 30.6038551,24.7274002 29.5746786,24.8035862 M20.8774643,18.4455172 C20.5513929,18.4188276 20.2253214,18.3832414 19.9022143,18.3446897 C20.0504286,17.9473103 20.1986429,17.5469655 20.3261071,17.1406897 C20.5849881,16.3498851 20.8063214,15.5422759 20.9901071,14.7178621 L21.2598571,14.7445517 C22.524595,14.8423513 23.7956154,14.8244841 25.0571071,14.6911724 C25.0393214,14.8572414 25.0245,15.0203448 25.0096786,15.1864138 C24.9255621,16.261252 24.9255621,17.3410239 25.0096786,18.4158621 C23.6297431,18.5445518 22.2413108,18.5544733 20.8596786,18.4455172 M21.5651786,10.8004138 C21.6303929,9.94931034 21.6570714,9.10710345 21.6452143,8.27082759 L21.7548929,8.27082759 C23.5440758,8.4214222 25.3455764,8.23123512 27.0639286,7.71034483 C26.633438,8.58451344 26.2659193,9.48833101 25.9641786,10.4148966 C25.8248571,10.8478621 25.6973929,11.2867586 25.5877143,11.7315862 C24.2316338,11.9315082 22.8571176,11.9752881 21.4910714,11.862069 C21.5325714,11.5062069 21.5711071,11.1503448 21.5977857,10.7944828 M31.3295357,15.6757241 C31.2969286,16.1057241 31.2850714,16.5327586 31.2880357,16.9597931 C30.1311456,17.3986615 28.9418318,17.7466803 27.7308929,18.0006897 C27.6679341,17.1329345 27.6679341,16.2617551 27.7308929,15.394 C27.7635,14.9936552 27.8079643,14.5933103 27.86725,14.2077931 C29.2438036,13.8612044 30.5808788,13.3732574 31.8571786,12.7517241 C31.5779707,13.7033736 31.3971891,14.6811924 31.3176786,15.6697931 M39.4931786,27.3035172 C39.5554286,27.0781379 39.61175,26.8527586 39.6680714,26.6244138 L39.6858571,26.5591724 C36.9985677,24.9336321 35.0939338,22.2780396 34.4153571,19.2106207 C36.2449443,18.3484571 37.9728971,17.2851953 39.5672857,16.0404828 C39.2765446,14.9024291 38.8918418,13.7904937 38.4171429,12.7161379 C37.1245683,13.8279668 35.7175209,14.799193 34.2197143,15.6134483 C34.4416128,13.4167936 35.2998136,11.3327564 36.6889643,9.61717241 L36.6563571,9.56972414 C36.4458929,9.25834483 36.2265357,8.95289655 36.0042143,8.65337931 C35.7818929,8.35386207 35.5328929,8.02172414 35.275,7.71034483 C35.1505,7.55910345 35.026,7.4137931 34.8955714,7.26551724 L34.8659286,7.30110345 C33.0668241,8.93749341 30.9511333,10.1870467 28.6498214,10.9724138 C29.428204,8.68658918 30.6614531,6.58223409 32.2751429,4.78634483 L32.2958929,4.76855172 C32.1200119,4.6262069 31.9411667,4.48682759 31.7593571,4.35041379 L31.4629286,4.13986207 L31.1842857,3.9382069 L31.0271786,3.83144828 C30.71,3.612 30.3868929,3.40144828 30.0578571,3.19682759 L29.9867143,3.15234483 C27.717407,4.93538345 24.8592644,5.79635949 21.9831429,5.56331034 C21.8171429,5.56331034 21.6511429,5.53068966 21.4881071,5.50993103 C21.27438,3.65321274 20.8690764,1.82362014 20.2786786,0.0504137931 C19.0854963,-0.0298103272 17.8876952,-0.00997094375 16.6978214,0.109724138 C17.2360703,1.51476535 17.6409972,2.96734915 17.90725,4.44827586 C16.1255989,3.5874058 14.5946157,2.28348728 13.4608214,0.661310345 C12.5527818,0.898289392 11.6615243,1.19549864 10.7929643,1.55096552 C12.516231,4.34720946 15.1501804,6.46383237 18.2511071,7.54427586 C18.2983638,8.54163491 18.2835137,9.54096978 18.2066429,10.5364828 C18.186881,10.7855862 18.1631667,11.0337011 18.1355,11.2808276 C13.7007784,10.0419437 9.91580367,7.13722427 7.57078571,3.17310345 C6.75073752,3.67559952 5.96450364,4.23134316 5.21714286,4.83675862 C8.00029253,9.42979012 12.4559437,12.7636148 17.6463929,14.1366207 C17.49225,14.7989195 17.3114286,15.4513333 17.1039286,16.0938621 C16.9260714,16.6375402 16.7284524,17.1713333 16.5110714,17.6952414 C11.8281592,16.4433459 7.63746158,13.7942377 4.49682143,10.1005517 C3.78998919,9.25446916 3.13941306,8.36289873 2.54928571,7.43158621 C1.78049695,8.3165576 1.08644835,9.26383159 0.474285714,10.2636552 C0.9545,10.9397931 1.46139286,11.5981379 2.00682143,12.2357241 C5.43540917,16.2707688 9.96934014,19.213894 15.0496786,20.7022759 C11.7811763,26.3523049 6.34270799,30.4170439 0,31.9504828 C0.587117171,32.9933872 1.26037958,33.9853491 2.01275,34.916 C9.10323396,32.8570915 15.0537553,28.0054339 18.5001071,21.4733103 C19.1996786,21.582046 19.9071548,21.6650805 20.6225357,21.7224138 C22.2591185,21.8510512 23.9039159,21.8331871 25.5373214,21.6690345 C25.8319429,22.875604 26.2357646,24.0528313 26.7437857,25.1861379 C19.5019165,26.7072205 13.6297746,31.9933253 11.3561786,39.038069 C11.1012031,39.8297063 10.8933388,40.6357625 10.7336786,41.452 C11.6372239,41.8113639 12.5642358,42.1086066 13.50825,42.3416552 C13.65072,41.5263965 13.848802,40.7218496 14.1011071,39.9336552 C16.1485383,33.5757749 21.5912575,28.9066842 28.1844286,27.8521379 C28.9604324,29.0670471 29.8604759,30.1980349 30.8700714,31.2268966 C24.0326906,31.2532074 18.2055538,36.1966923 17.0624286,42.9406897 L17.1068929,42.9406897 C18.0145499,43.0056499 18.9253868,43.0135735 19.8340357,42.9644138 C19.9085348,42.5991215 20.0015356,42.2378513 20.1126786,41.882 C21.1088018,38.8031453 23.3582574,36.2882931 26.3067072,34.957184 C29.2551569,33.6260748 32.6283935,33.6025024 35.5951429,34.8922759 L35.6307143,34.8448276 C35.856,34.5482759 36.0723929,34.2695172 36.2828571,33.9729655 L36.437,33.7594483 L36.5140714,33.6467586 C36.7423214,33.3116552 36.9646429,32.9735862 37.1751071,32.6236552 L37.1751071,32.6028966 C34.890359,31.3832779 32.8954767,29.6849511 31.3265714,27.6237931 C31.6911786,27.6237931 32.0557857,27.6445517 32.4233571,27.6742069 C34.6261354,27.8473794 36.7773737,28.4296618 38.7669286,29.3912414 C38.8558571,29.1688276 38.9447857,28.9434483 39.0277857,28.7151034 C39.1107857,28.4867586 39.1641429,28.3473793 39.2263929,28.1575862 C39.2708571,28.0182069 39.3123571,27.8610345 39.3538571,27.7335172 C39.3953571,27.606 39.4279643,27.4933103 39.4605714,27.3717241 L39.4783571,27.3064828" id="Shape"></path>
                <path d="M59.8400357,13.6057931 L59.8400357,24.0562759 C59.8400357,26.9387586 57.8984286,28.8604138 54.8659643,28.8604138 C51.8335,28.8604138 49.8918929,26.9387586 49.8918929,24.0562759 L52.8028214,24.0562759 C52.9222662,25.1050299 53.8093809,25.8971359 54.8644821,25.8971359 C55.9195834,25.8971359 56.806698,25.1050299 56.9261429,24.0562759 L56.9261429,13.6057931 L59.8400357,13.6057931 Z" id="Shape" fill-rule="nonzero"></path>
                <polygon id="Shape" fill-rule="nonzero" points="92.9155357 25.977931 92.9155357 28.7417931 82.8369643 28.7417931 82.8369643 13.6176552 85.7478929 13.6176552 85.7478929 25.977931"></polygon>
                <polygon id="Shape" fill-rule="nonzero" points="165.890321 13.6057931 165.890321 28.729931 162.979393 28.729931 162.979393 20.3345517 159.099143 28.7417931 157.157536 28.7417931 153.277286 20.3345517 153.277286 28.7417931 150.366357 28.7417931 150.366357 13.6176552 152.912679 13.6176552 158.126857 24.7887586 163.332143 13.6057931"></polygon>
                <path d="M71.3088571,13.4901379 C68.2009307,13.4901382 65.3990865,15.3632442 64.2100116,18.2359016 C63.0209367,21.108559 63.6788418,24.4149441 65.8769016,26.6130688 C68.0749615,28.8111935 71.3802272,29.4680959 74.2512325,28.2774187 C77.1222379,27.0867414 78.9934848,24.2830105 78.9922857,21.1737931 C78.990649,16.9297479 75.5511402,13.4901376 71.3088571,13.4901379 Z M71.3088571,26.0935862 C68.5948819,26.0935857 66.3946177,23.8928492 66.3940724,21.1777465 C66.3935271,18.4626438 68.5929071,16.261023 71.3068821,16.2599314 C74.0208571,16.2588399 76.222006,18.4586908 76.2236429,21.1737931 C76.2252165,22.4788442 75.7081049,23.7309827 74.7862332,24.65435 C73.8643615,25.5777172 72.6133672,26.0965527 71.3088571,26.0965517 L71.3088571,26.0935862 Z" id="Shape" fill-rule="nonzero"></path>
                <path d="M102.756964,13.4901379 C99.6490378,13.4901382 96.8471936,15.3632442 95.6581187,18.2359016 C94.4690439,21.108559 95.1269489,24.4149441 97.3250087,26.6130688 C99.5230686,28.8111935 102.828334,29.4680959 105.69934,28.2774187 C108.570345,27.0867414 110.441592,24.2830105 110.440393,21.1737931 C110.438756,16.9297479 106.999247,13.4901376 102.756964,13.4901379 Z M102.756964,26.0935862 C100.042989,26.0935857 97.8427249,23.8928492 97.8421796,21.1777465 C97.8416343,18.4626438 100.041014,16.261023 102.754989,16.2599314 C105.468964,16.2588399 107.670113,18.4586908 107.67175,21.1737931 C107.673324,22.4788442 107.156212,23.7309827 106.23434,24.65435 C105.312469,25.5777172 104.061474,26.0965527 102.756964,26.0965517 L102.756964,26.0935862 Z" id="Shape" fill-rule="nonzero"></path>
                <path d="M138.847143,13.4901379 C135.739216,13.4901382 132.937372,15.3632442 131.748297,18.2359016 C130.559222,21.108559 131.217127,24.4149441 133.415187,26.6130688 C135.613247,28.8111935 138.918513,29.4680959 141.789518,28.2774187 C144.660524,27.0867414 146.53177,24.2830105 146.530571,21.1737931 C146.528935,16.9297479 143.089426,13.4901376 138.847143,13.4901379 Z M138.847143,26.0935862 C136.133942,26.0903115 133.936651,23.8881271 133.938288,21.1737973 C133.939924,18.4594675 136.139867,16.2599358 138.85307,16.2599346 C141.566273,16.2599335 143.766219,18.4594633 143.767857,21.1737931 C143.769433,22.4798725 143.251508,23.7329116 142.328353,24.6564498 C141.405199,25.5799881 140.15268,26.0981282 138.847143,26.0965517 L138.847143,26.0935862 Z" id="Shape" fill-rule="nonzero"></path>
                <path d="M125.445607,23.4513103 C124.396882,25.4569894 122.114935,26.4872574 119.917739,25.9470684 C117.720543,25.4068793 116.175871,23.4358225 116.175871,21.1723103 C116.175871,18.9087982 117.720543,16.9377414 119.917739,16.3975523 C122.114935,15.8573632 124.396882,16.8876313 125.445607,18.8933103 L128.433607,18.8933103 C127.307376,15.2640433 123.699219,13.0027948 119.943604,13.5725857 C116.187989,14.1423767 113.412226,17.3721748 113.412226,21.1723103 C113.412226,24.9724459 116.187989,28.202244 119.943604,28.772035 C123.699219,29.3418259 127.307376,27.0805774 128.433607,23.4513103 L125.445607,23.4513103 Z" id="Shape" fill-rule="nonzero"></path>
            </g>
        </g>
    </g>
</svg>